<svg width="183" height="44" viewBox="0 0 183 44" fill="none" xmlns="http://www.w3.org/2000/svg">
<path d="M0.54744 36L10.7663 10.234H15.9487L26.058 36H19.9997L12.2626 14.6135H14.3428L6.49625 36H0.54744ZM6.35027 31.3285V26.6571H20.4011V31.3285H6.35027ZM15.2552 8.22672L8.21155 4.43116L11.2772 0.124664L17.08 5.56253L15.2552 8.22672Z" fill="#122896"/>
<path d="M34.4748 36V9.50408H40.0587V36H34.4748Z" fill="#122896"/>
<path d="M51.3994 36.365C49.7693 36.365 48.3095 35.9635 47.02 35.1606C45.7548 34.3577 44.745 33.2628 43.9908 31.876C43.2609 30.4891 42.8959 28.9077 42.8959 27.1315C42.8959 25.3554 43.2609 23.7739 43.9908 22.3871C44.745 21.0002 45.7548 19.9054 47.02 19.1025C48.3095 18.2996 49.7693 17.8981 51.3994 17.8981C52.5916 17.8981 53.6622 18.1292 54.6111 18.5915C55.5843 19.0538 56.375 19.6986 56.9833 20.5258C57.5916 21.3287 57.9322 22.2533 58.0052 23.2995V30.9636C57.9322 32.0098 57.5916 32.9465 56.9833 33.7738C56.3994 34.5767 55.6208 35.2093 54.6476 35.6715C53.6743 36.1338 52.5916 36.365 51.3994 36.365ZM52.5308 31.3285C53.723 31.3285 54.6841 30.9393 55.414 30.1607C56.1439 29.3578 56.5089 28.3481 56.5089 27.1315C56.5089 26.3043 56.3385 25.5744 55.9979 24.9418C55.6816 24.3092 55.2193 23.8226 54.6111 23.482C54.0271 23.117 53.3459 22.9345 52.5673 22.9345C51.7887 22.9345 51.0953 23.117 50.487 23.482C49.9031 23.8226 49.4287 24.3092 49.0637 24.9418C48.7231 25.5744 48.5528 26.3043 48.5528 27.1315C48.5528 27.9344 48.7231 28.6522 49.0637 29.2848C49.4043 29.9174 49.8788 30.4162 50.487 30.7811C51.0953 31.1461 51.7766 31.3285 52.5308 31.3285ZM56.2899 36V31.2191L57.1293 26.9126L56.2899 22.6061V18.2631H61.7642V36H56.2899Z" fill="#122896"/>
<path d="M72.6457 36V9.50408H78.2295V36H72.6457Z" fill="#122896"/>
<path d="M90.7017 36.4015C88.8769 36.4015 87.2224 36 85.7383 35.1971C84.2784 34.3699 83.1227 33.2507 82.2712 31.8395C81.4196 30.4283 80.9938 28.8468 80.9938 27.095C80.9938 25.3432 81.4196 23.7739 82.2712 22.3871C83.1227 21.0002 84.2784 19.9054 85.7383 19.1025C87.1981 18.2752 88.8526 17.8616 90.7017 17.8616C92.5508 17.8616 94.2053 18.2631 95.6651 19.066C97.1249 19.8689 98.2806 20.9759 99.1322 22.3871C99.9838 23.7739 100.41 25.3432 100.41 27.095C100.41 28.8468 99.9838 30.4283 99.1322 31.8395C98.2806 33.2507 97.1249 34.3699 95.6651 35.1971C94.2053 36 92.5508 36.4015 90.7017 36.4015ZM90.7017 31.3285C91.5046 31.3285 92.2102 31.1582 92.8184 30.8176C93.4267 30.4526 93.889 29.9539 94.2053 29.3213C94.5459 28.6644 94.7162 27.9223 94.7162 27.095C94.7162 26.2678 94.5459 25.55 94.2053 24.9418C93.8646 24.3092 93.3902 23.8226 92.7819 23.482C92.198 23.117 91.5046 22.9345 90.7017 22.9345C89.9231 22.9345 89.2297 23.117 88.6214 23.482C88.0132 23.8226 87.5387 24.3092 87.1981 24.9418C86.8575 25.5744 86.6871 26.3043 86.6871 27.1315C86.6871 27.9344 86.8575 28.6644 87.1981 29.3213C87.5387 29.9539 88.0132 30.4526 88.6214 30.8176C89.2297 31.1582 89.9231 31.3285 90.7017 31.3285Z" fill="#122896"/>
<path d="M114.905 36V25.8907C114.905 24.9661 114.613 24.224 114.029 23.6644C113.469 23.0805 112.751 22.7885 111.875 22.7885C111.267 22.7885 110.732 22.9224 110.27 23.19C109.807 23.4333 109.442 23.7983 109.175 24.2849C108.907 24.7471 108.773 25.2824 108.773 25.8907L106.62 24.8323C106.62 23.4455 106.924 22.2289 107.533 21.1827C108.141 20.1365 108.98 19.3336 110.051 18.774C111.146 18.1901 112.374 17.8981 113.737 17.8981C115.051 17.8981 116.206 18.2144 117.204 18.847C118.226 19.4553 119.029 20.2703 119.613 21.2922C120.197 22.3141 120.488 23.4333 120.488 24.6498V36H114.905ZM103.189 36V18.2631H108.773V36H103.189Z" fill="#122896"/>
<path d="M131.593 43.9561C129.646 43.9561 127.931 43.6155 126.447 42.9342C124.987 42.2773 123.831 41.3405 122.98 40.124L126.41 36.6934C127.043 37.4477 127.749 38.0194 128.527 38.4087C129.33 38.798 130.291 38.9927 131.41 38.9927C132.797 38.9927 133.88 38.652 134.659 37.9708C135.461 37.2895 135.863 36.3285 135.863 35.0876V30.5621L136.812 26.6936L135.972 22.825V18.2631H141.447V34.9416C141.447 36.7664 141.021 38.3479 140.169 39.6861C139.318 41.0243 138.15 42.0705 136.666 42.8247C135.182 43.579 133.491 43.9561 131.593 43.9561ZM131.337 35.4526C129.707 35.4526 128.26 35.0633 126.994 34.2847C125.729 33.5061 124.732 32.4477 124.002 31.1096C123.272 29.7714 122.907 28.2872 122.907 26.6571C122.907 25.0026 123.272 23.5185 124.002 22.2046C124.732 20.8664 125.729 19.8202 126.994 19.066C128.26 18.2874 129.707 17.8981 131.337 17.8981C132.554 17.8981 133.637 18.1292 134.586 18.5915C135.559 19.0295 136.337 19.6621 136.921 20.4893C137.53 21.2922 137.87 22.2289 137.943 23.2995V30.0512C137.87 31.0974 137.53 32.0341 136.921 32.8614C136.337 33.6643 135.559 34.2969 134.586 34.7591C133.612 35.2214 132.53 35.4526 131.337 35.4526ZM132.396 30.4891C133.174 30.4891 133.843 30.3188 134.403 29.9782C134.987 29.6376 135.425 29.1875 135.717 28.6279C136.033 28.0439 136.191 27.387 136.191 26.6571C136.191 25.9272 136.033 25.2702 135.717 24.6863C135.425 24.1024 134.987 23.6401 134.403 23.2995C133.843 22.9588 133.174 22.7885 132.396 22.7885C131.642 22.7885 130.972 22.9588 130.389 23.2995C129.805 23.6401 129.354 24.1024 129.038 24.6863C128.722 25.2702 128.564 25.9272 128.564 26.6571C128.564 27.3383 128.722 27.9831 129.038 28.5914C129.354 29.1753 129.792 29.6376 130.352 29.9782C130.936 30.3188 131.617 30.4891 132.396 30.4891Z" fill="#122896"/>
<path d="M153.271 36.4015C151.641 36.4015 150.193 36.073 148.928 35.4161C147.687 34.7348 146.714 33.8103 146.008 32.6424C145.303 31.4502 144.95 30.0877 144.95 28.5549V18.2631H150.534V28.4819C150.534 29.0901 150.631 29.6132 150.826 30.0512C151.045 30.4891 151.361 30.8298 151.774 31.0731C152.188 31.3164 152.687 31.438 153.271 31.438C154.098 31.438 154.755 31.1826 155.242 30.6716C155.728 30.1364 155.972 29.4064 155.972 28.4819V18.2631H161.555V28.5184C161.555 30.0755 161.203 31.4502 160.497 32.6424C159.791 33.8103 158.818 34.7348 157.577 35.4161C156.336 36.073 154.901 36.4015 153.271 36.4015Z" fill="#122896"/>
<path d="M173.82 36.4015C171.898 36.4015 170.183 36.0122 168.674 35.2336C167.19 34.4307 166.022 33.3236 165.171 31.9125C164.319 30.5013 163.893 28.9077 163.893 27.1315C163.893 25.3554 164.307 23.7739 165.134 22.3871C165.986 20.9759 167.129 19.8689 168.565 19.066C170 18.2631 171.618 17.8616 173.419 17.8616C175.171 17.8616 176.716 18.2387 178.054 18.993C179.392 19.7472 180.438 20.7934 181.192 22.1316C181.971 23.4698 182.36 25.0026 182.36 26.7301C182.36 27.0464 182.336 27.387 182.287 27.752C182.263 28.0926 182.202 28.494 182.105 28.9563L166.813 28.9928V25.1608L179.733 25.1243L177.324 26.7301C177.299 25.7082 177.141 24.8688 176.849 24.2119C176.557 23.5306 176.119 23.0197 175.536 22.679C174.976 22.3141 174.282 22.1316 173.455 22.1316C172.579 22.1316 171.813 22.3384 171.156 22.752C170.523 23.1413 170.025 23.7009 169.66 24.4308C169.319 25.1608 169.149 26.0488 169.149 27.095C169.149 28.1412 169.331 29.0415 169.696 29.7957C170.085 30.5256 170.621 31.0974 171.302 31.511C172.008 31.9003 172.835 32.095 173.784 32.095C174.66 32.095 175.45 31.949 176.156 31.657C176.862 31.3407 177.482 30.8784 178.017 30.2702L181.083 33.3358C180.207 34.3577 179.149 35.1241 177.908 35.635C176.667 36.146 175.304 36.4015 173.82 36.4015Z" fill="#122896"/>
</svg>
