<svg width="191" height="53" viewBox="0 0 191 53" fill="none" xmlns="http://www.w3.org/2000/svg">
<path d="M0.547437 37L10.7663 11.234H15.9486L26.058 37H19.9997L12.2626 15.6135H14.3428L6.49625 37H0.547437ZM6.35026 32.3285V27.6571H20.4011V32.3285H6.35026ZM15.2552 9.22672L8.21155 5.43116L11.2772 1.12466L17.08 6.56253L15.2552 9.22672ZM34.5105 37V10.5041H40.0943V37H34.5105ZM51.4351 37.365C49.8049 37.365 48.3451 36.9635 47.0556 36.1606C45.7904 35.3577 44.7807 34.2628 44.0264 32.876C43.2965 31.4891 42.9316 29.9077 42.9316 28.1315C42.9316 26.3554 43.2965 24.7739 44.0264 23.3871C44.7807 22.0002 45.7904 20.9054 47.0556 20.1025C48.3451 19.2996 49.8049 18.8981 51.4351 18.8981C52.6273 18.8981 53.6978 19.1292 54.6467 19.5915C55.6199 20.0538 56.4107 20.6986 57.0189 21.5258C57.6272 22.3287 57.9678 23.2533 58.0408 24.2995V31.9636C57.9678 33.0098 57.6272 33.9465 57.0189 34.7738C56.435 35.5767 55.6564 36.2093 54.6832 36.6715C53.71 37.1338 52.6273 37.365 51.4351 37.365ZM52.5664 32.3285C53.7586 32.3285 54.7197 31.9393 55.4496 31.1607C56.1795 30.3578 56.5445 29.3481 56.5445 28.1315C56.5445 27.3043 56.3742 26.5744 56.0335 25.9418C55.7172 25.3092 55.255 24.8226 54.6467 24.482C54.0628 24.117 53.3815 23.9345 52.6029 23.9345C51.8244 23.9345 51.1309 24.117 50.5227 24.482C49.9388 24.8226 49.4643 25.3092 49.0994 25.9418C48.7587 26.5744 48.5884 27.3043 48.5884 28.1315C48.5884 28.9344 48.7587 29.6522 49.0994 30.2848C49.44 30.9174 49.9144 31.4161 50.5227 31.7811C51.1309 32.1461 51.8122 32.3285 52.5664 32.3285ZM56.3255 37V32.2191L57.1649 27.9126L56.3255 23.6061V19.2631H61.7999V37H56.3255ZM72.6813 37V10.5041H78.2652V37H72.6813ZM90.7373 37.4015C88.9125 37.4015 87.258 37 85.7739 36.1971C84.3141 35.3699 83.1584 34.2507 82.3068 32.8395C81.4552 31.4283 81.0294 29.8468 81.0294 28.095C81.0294 26.3432 81.4552 24.7739 82.3068 23.3871C83.1584 22.0002 84.3141 20.9054 85.7739 20.1025C87.2337 19.2752 88.8882 18.8616 90.7373 18.8616C92.5864 18.8616 94.2409 19.2631 95.7007 20.066C97.1606 20.8689 98.3163 21.9759 99.1678 23.3871C100.019 24.7739 100.445 26.3432 100.445 28.095C100.445 29.8468 100.019 31.4283 99.1678 32.8395C98.3163 34.2507 97.1606 35.3699 95.7007 36.1971C94.2409 37 92.5864 37.4015 90.7373 37.4015ZM90.7373 32.3285C91.5402 32.3285 92.2458 32.1582 92.8541 31.8176C93.4623 31.4526 93.9246 30.9539 94.2409 30.3213C94.5815 29.6644 94.7518 28.9223 94.7518 28.095C94.7518 27.2678 94.5815 26.55 94.2409 25.9418C93.9003 25.3092 93.4258 24.8226 92.8176 24.482C92.2336 24.117 91.5402 23.9345 90.7373 23.9345C89.9587 23.9345 89.2653 24.117 88.6571 24.482C88.0488 24.8226 87.5743 25.3092 87.2337 25.9418C86.8931 26.5744 86.7228 27.3043 86.7228 28.1315C86.7228 28.9344 86.8931 29.6644 87.2337 30.3213C87.5743 30.9539 88.0488 31.4526 88.6571 31.8176C89.2653 32.1582 89.9587 32.3285 90.7373 32.3285ZM114.94 37V26.8907C114.94 25.9661 114.648 25.224 114.064 24.6644C113.505 24.0805 112.787 23.7885 111.911 23.7885C111.303 23.7885 110.768 23.9224 110.305 24.19C109.843 24.4333 109.478 24.7982 109.21 25.2849C108.943 25.7471 108.809 26.2824 108.809 26.8907L106.656 25.8323C106.656 24.4455 106.96 23.2289 107.568 22.1827C108.176 21.1365 109.016 20.3336 110.086 19.774C111.181 19.1901 112.41 18.8981 113.772 18.8981C115.086 18.8981 116.242 19.2144 117.24 19.847C118.261 20.4553 119.064 21.2703 119.648 22.2922C120.232 23.3141 120.524 24.4333 120.524 25.6498V37H114.94ZM103.225 37V19.2631H108.809V37H103.225ZM131.629 44.9561C129.682 44.9561 127.967 44.6155 126.483 43.9342C125.023 43.2773 123.867 42.3405 123.016 41.124L126.446 37.6934C127.079 38.4477 127.784 39.0194 128.563 39.4087C129.366 39.798 130.327 39.9927 131.446 39.9927C132.833 39.9927 133.916 39.652 134.694 38.9708C135.497 38.2895 135.899 37.3285 135.899 36.0876V31.5621L136.847 27.6936L136.008 23.825V19.2631H141.482V35.9416C141.482 37.7664 141.057 39.3479 140.205 40.6861C139.353 42.0243 138.186 43.0705 136.701 43.8247C135.217 44.579 133.526 44.9561 131.629 44.9561ZM131.373 36.4526C129.743 36.4526 128.295 36.0633 127.03 35.2847C125.765 34.5061 124.767 33.4477 124.037 32.1096C123.308 30.7714 122.943 29.2872 122.943 27.6571C122.943 26.0026 123.308 24.5184 124.037 23.2046C124.767 21.8664 125.765 20.8202 127.03 20.066C128.295 19.2874 129.743 18.8981 131.373 18.8981C132.59 18.8981 133.672 19.1292 134.621 19.5915C135.594 20.0295 136.373 20.6621 136.957 21.4893C137.565 22.2922 137.906 23.2289 137.979 24.2995V31.0512C137.906 32.0974 137.565 33.0341 136.957 33.8614C136.373 34.6643 135.594 35.2969 134.621 35.7591C133.648 36.2214 132.565 36.4526 131.373 36.4526ZM132.431 31.4891C133.21 31.4891 133.879 31.3188 134.439 30.9782C135.023 30.6376 135.461 30.1875 135.753 29.6279C136.069 29.0439 136.227 28.387 136.227 27.6571C136.227 26.9272 136.069 26.2702 135.753 25.6863C135.461 25.1024 135.023 24.6401 134.439 24.2995C133.879 23.9588 133.21 23.7885 132.431 23.7885C131.677 23.7885 131.008 23.9588 130.424 24.2995C129.84 24.6401 129.39 25.1024 129.074 25.6863C128.758 26.2702 128.599 26.9272 128.599 27.6571C128.599 28.3383 128.758 28.9831 129.074 29.5914C129.39 30.1753 129.828 30.6376 130.388 30.9782C130.972 31.3188 131.653 31.4891 132.431 31.4891ZM153.306 37.4015C151.676 37.4015 150.229 37.073 148.963 36.4161C147.723 35.7348 146.749 34.8103 146.044 33.6424C145.338 32.4502 144.985 31.0877 144.985 29.5549V19.2631H150.569V29.4819C150.569 30.0901 150.667 30.6132 150.861 31.0512C151.08 31.4891 151.397 31.8298 151.81 32.0731C152.224 32.3164 152.723 32.438 153.306 32.438C154.134 32.438 154.791 32.1826 155.277 31.6716C155.764 31.1363 156.007 30.4064 156.007 29.4819V19.2631H161.591V29.5184C161.591 31.0755 161.238 32.4502 160.533 33.6424C159.827 34.8103 158.854 35.7348 157.613 36.4161C156.372 37.073 154.937 37.4015 153.306 37.4015ZM173.856 37.4015C171.934 37.4015 170.218 37.0122 168.71 36.2336C167.226 35.4307 166.058 34.3236 165.206 32.9125C164.355 31.5013 163.929 29.9077 163.929 28.1315C163.929 26.3554 164.343 24.7739 165.17 23.3871C166.021 21.9759 167.165 20.8689 168.6 20.066C170.036 19.2631 171.654 18.8616 173.454 18.8616C175.206 18.8616 176.751 19.2387 178.089 19.993C179.428 20.7472 180.474 21.7934 181.228 23.1316C182.007 24.4698 182.396 26.0026 182.396 27.7301C182.396 28.0464 182.372 28.387 182.323 28.752C182.299 29.0926 182.238 29.494 182.14 29.9563L166.849 29.9928V26.1608L179.768 26.1243L177.359 27.7301C177.335 26.7082 177.177 25.8688 176.885 25.2119C176.593 24.5306 176.155 24.0197 175.571 23.679C175.012 23.3141 174.318 23.1316 173.491 23.1316C172.615 23.1316 171.849 23.3384 171.192 23.752C170.559 24.1413 170.06 24.7009 169.695 25.4308C169.355 26.1608 169.184 27.0488 169.184 28.095C169.184 29.1412 169.367 30.0415 169.732 30.7957C170.121 31.5256 170.656 32.0974 171.338 32.511C172.043 32.9003 172.87 33.095 173.819 33.095C174.695 33.095 175.486 32.949 176.192 32.657C176.897 32.3407 177.518 31.8784 178.053 31.2702L181.119 34.3358C180.243 35.3577 179.184 36.1241 177.943 36.635C176.703 37.146 175.34 37.4015 173.856 37.4015Z" fill="#122896"/>
</svg>
