<svg width="181" height="42" viewBox="0 0 181 42" fill="none" xmlns="http://www.w3.org/2000/svg">
<path d="M0.417692 28L8.21462 8.34061H12.1688L19.8822 28H15.2597L9.35631 11.6822H10.9435L4.95662 28H0.417692ZM4.84523 24.4357V20.8714H15.566V24.4357H4.84523ZM11.6397 6.80908L6.26538 3.91308L8.60446 0.62723L13.032 4.77631L11.6397 6.80908ZM26.694 28V8.34061H31.0659V28H26.694ZM30.0634 28V24.1572H39.7817V28H30.0634ZM40.2834 28L48.0803 8.34061H52.0345L59.7478 28H55.1254L49.222 11.6822H50.8092L44.8223 28H40.2834ZM44.7109 24.4357V20.8714H55.4317V24.4357H44.7109ZM66.5597 28V8.34061H70.9315V28H66.5597ZM69.9291 28V24.1572H79.6474V28H69.9291ZM90.4652 28.3342C88.9801 28.3342 87.6063 28.0743 86.344 27.5545C85.1002 27.0347 84.0049 26.3107 83.0581 25.3825C82.1113 24.4543 81.3781 23.3775 80.8583 22.1523C80.3385 20.9085 80.0786 19.5719 80.0786 18.1425C80.0786 16.6945 80.3385 15.3578 80.8583 14.1326C81.3781 12.9074 82.1021 11.8399 83.0303 10.9303C83.9585 10.0021 85.0445 9.28738 86.2883 8.78615C87.5506 8.26636 88.9244 8.00646 90.4095 8.00646C91.8761 8.00646 93.2312 8.26636 94.475 8.78615C95.7374 9.28738 96.8327 10.0021 97.7609 10.9303C98.7077 11.8399 99.4409 12.9167 99.9607 14.1605C100.481 15.3857 100.74 16.7223 100.74 18.1703C100.74 19.5997 100.481 20.9364 99.9607 22.1802C99.4409 23.4054 98.7169 24.4821 97.7887 25.4103C96.8605 26.3199 95.7652 27.0347 94.5029 27.5545C93.2591 28.0743 91.9132 28.3342 90.4652 28.3342ZM90.4095 24.3522C91.579 24.3522 92.6001 24.0923 93.4726 23.5725C94.3637 23.0527 95.0505 22.3287 95.5332 21.4005C96.0159 20.4537 96.2572 19.3677 96.2572 18.1425C96.2572 17.2143 96.118 16.3789 95.8395 15.6363C95.561 14.8752 95.1619 14.2254 94.6421 13.6871C94.1223 13.1302 93.5004 12.7125 92.7764 12.434C92.071 12.137 91.282 11.9885 90.4095 11.9885C89.24 11.9885 88.2097 12.2484 87.3186 12.7682C86.4461 13.2694 85.7685 13.9841 85.2858 14.9123C84.8031 15.8219 84.5618 16.8987 84.5618 18.1425C84.5618 19.0707 84.701 19.9153 84.9795 20.6765C85.258 21.4376 85.6478 22.0966 86.149 22.6535C86.6688 23.1919 87.2907 23.6096 88.0147 23.9066C88.7387 24.2036 89.537 24.3522 90.4095 24.3522ZM103.516 28V8.34061H106.579L107.888 12.2669V28H103.516ZM117.077 28L105.493 13.158L106.579 8.34061L118.163 23.1826L117.077 28ZM117.077 28L115.907 24.0737V8.34061H120.279V28H117.077ZM133.347 28.3063C131.917 28.3063 130.571 28.0464 129.309 27.5266C128.065 27.0068 126.979 26.2921 126.051 25.3825C125.123 24.4543 124.39 23.3775 123.851 22.1523C123.331 20.9085 123.072 19.5719 123.072 18.1425C123.072 16.713 123.341 15.3857 123.879 14.1605C124.417 12.9352 125.16 11.8678 126.107 10.9582C127.072 10.0299 128.195 9.31523 129.476 8.814C130.757 8.29421 132.131 8.03431 133.597 8.03431C135.287 8.03431 136.818 8.34062 138.192 8.95323C139.584 9.56585 140.735 10.4105 141.645 11.4872L138.665 14.4668C138.034 13.6499 137.292 13.0373 136.438 12.6289C135.584 12.2205 134.618 12.0163 133.542 12.0163C132.391 12.0163 131.36 12.2762 130.451 12.796C129.541 13.2972 128.826 14.0119 128.307 14.9402C127.805 15.8498 127.555 16.9172 127.555 18.1425C127.555 19.3677 127.805 20.4444 128.307 21.3726C128.808 22.3008 129.495 23.0248 130.367 23.5446C131.24 24.0644 132.242 24.3243 133.375 24.3243C134.526 24.3243 135.5 24.1108 136.298 23.6838C137.115 23.2383 137.737 22.6071 138.164 21.7903C138.61 20.9549 138.832 19.9432 138.832 18.7551L141.728 20.7043L132.957 20.5651V16.8615H143.288V17.502C143.288 19.8596 142.861 21.846 142.007 23.4611C141.172 25.0576 140.002 26.2643 138.498 27.0811C137.013 27.8979 135.296 28.3063 133.347 28.3063ZM153.846 28.3063C152.231 28.3063 150.801 27.9629 149.558 27.276C148.332 26.5891 147.367 25.6424 146.662 24.4357C145.975 23.2105 145.631 21.8182 145.631 20.2588V8.34061H150.031V20.5094C150.031 21.2891 150.198 21.9667 150.532 22.5422C150.866 23.1176 151.321 23.5632 151.897 23.8788C152.491 24.1758 153.14 24.3243 153.846 24.3243C154.588 24.3243 155.238 24.1758 155.795 23.8788C156.352 23.5632 156.788 23.1269 157.104 22.57C157.438 21.9945 157.605 21.3169 157.605 20.5372V8.34061H162.005V20.2866C162.005 21.846 161.661 23.229 160.974 24.4357C160.288 25.6424 159.332 26.5891 158.106 27.276C156.881 27.9629 155.461 28.3063 153.846 28.3063ZM165.49 28V8.34061H169.862V28H165.49ZM168.831 28V24.2129H179.608V28H168.831ZM168.831 19.7854V16.1375H178.633V19.7854H168.831ZM168.831 12.0998V8.34061H179.468V12.0998H168.831Z" fill="#2B3D98"/>
<path d="M3.36382 37.7936L0.323015 33.2045H1.53711L3.98757 36.9582H3.44178L5.90338 33.2045H7.0952L4.03212 37.7936H3.36382ZM3.1856 40.9346V37.103H4.23262V40.9346H3.1856ZM12.2692 41.046C11.7197 41.046 11.2073 40.9458 10.7321 40.7453C10.2568 40.5373 9.841 40.2515 9.48457 39.8876C9.12814 39.5163 8.84968 39.0893 8.64919 38.6067C8.45612 38.124 8.35959 37.6079 8.35959 37.0584C8.35959 36.5015 8.45612 35.9854 8.64919 35.5102C8.84968 35.0275 9.12443 34.6043 9.47344 34.2404C9.82987 33.8765 10.242 33.5944 10.7098 33.3939C11.185 33.1934 11.6974 33.0931 12.2469 33.0931C12.7964 33.0931 13.3051 33.1934 13.7729 33.3939C14.2481 33.5944 14.664 33.8765 15.0204 34.2404C15.3768 34.6043 15.6553 35.0275 15.8558 35.5102C16.0563 35.9929 16.1565 36.5126 16.1565 37.0696C16.1565 37.6191 16.0563 38.1351 15.8558 38.6178C15.6553 39.1005 15.3768 39.5237 15.0204 39.8876C14.6714 40.2515 14.2593 40.5373 13.784 40.7453C13.3162 40.9458 12.8113 41.046 12.2692 41.046ZM12.2469 40.0435C12.8038 40.0435 13.2902 39.9173 13.7061 39.6648C14.1293 39.4049 14.4635 39.0522 14.7085 38.6067C14.9536 38.1537 15.0761 37.6376 15.0761 37.0584C15.0761 36.6277 15.0055 36.2342 14.8645 35.8778C14.7234 35.5139 14.5266 35.1983 14.2741 34.931C14.0216 34.6637 13.7246 34.4595 13.383 34.3184C13.0415 34.1699 12.6627 34.0956 12.2469 34.0956C11.6974 34.0956 11.211 34.2218 10.7878 34.4743C10.3719 34.7268 10.0415 35.0758 9.79645 35.5213C9.55883 35.9669 9.44002 36.4792 9.44002 37.0584C9.44002 37.4891 9.50685 37.8901 9.64051 38.2614C9.7816 38.6252 9.97467 38.9408 10.2197 39.2082C10.4722 39.4681 10.7692 39.6723 11.1108 39.8208C11.4598 39.9693 11.8385 40.0435 12.2469 40.0435ZM21.6026 41.046C21.0308 41.046 20.5185 40.9198 20.0655 40.6673C19.62 40.4074 19.2672 40.0547 19.0073 39.6091C18.7475 39.1562 18.6175 38.6438 18.6175 38.072V33.2045H19.6645V38.0498C19.6645 38.4582 19.7499 38.8109 19.9207 39.1079C20.0915 39.4049 20.3217 39.6351 20.6113 39.7985C20.9083 39.9619 21.2388 40.0435 21.6026 40.0435C21.9813 40.0435 22.3118 39.9619 22.5939 39.7985C22.8835 39.6351 23.11 39.4049 23.2734 39.1079C23.4442 38.8109 23.5296 38.4619 23.5296 38.0609V33.2045H24.5877V38.0832C24.5877 38.6549 24.4578 39.1636 24.1979 39.6091C23.938 40.0547 23.5853 40.4074 23.1397 40.6673C22.6942 40.9198 22.1818 41.046 21.6026 41.046ZM28.1255 37.5708V36.6909H30.2195C30.6725 36.6909 31.0215 36.5758 31.2665 36.3456C31.5116 36.1154 31.6341 35.8035 31.6341 35.4099C31.6341 35.0387 31.5116 34.7305 31.2665 34.4854C31.0289 34.2404 30.6836 34.1179 30.2307 34.1179H28.1255V33.2045H30.2641C30.7542 33.2045 31.1811 33.3011 31.545 33.4941C31.9088 33.6798 32.1873 33.9359 32.3804 34.2627C32.5809 34.5894 32.6811 34.9644 32.6811 35.3877C32.6811 35.8258 32.5809 36.2082 32.3804 36.5349C32.1873 36.8617 31.9088 37.1178 31.545 37.3035C31.1811 37.4817 30.7542 37.5708 30.2641 37.5708H28.1255ZM27.4238 40.9346V33.2045H28.4708V40.9346H27.4238ZM31.8791 40.9346L29.0723 37.4706L30.0636 37.1253L33.2046 40.9346H31.8791ZM38.9843 40.9346V33.2045H39.7194L40.0313 34.4186V40.9346H38.9843ZM44.3307 40.9346L39.5857 34.5968L39.7194 33.2045L44.4755 39.5312L44.3307 40.9346ZM44.3307 40.9346L44.0189 39.7874V33.2045H45.0659V40.9346H44.3307ZM48.006 40.9346V33.2045H49.053V40.9346H48.006ZM48.7188 40.9346V39.9767H53.152V40.9346H48.7188ZM48.7188 37.4371V36.5238H52.7844V37.4371H48.7188ZM48.7188 34.1624V33.2045H53.0963V34.1624H48.7188ZM60.9137 40.9346L58.4855 37.3926H58.2962L55.2442 33.2045H56.4918L58.8977 36.5349H59.087L62.139 40.9346H60.9137ZM55.1106 40.9346L58.1068 36.8245L58.8197 37.4483L56.2913 40.9346H55.1106ZM59.1538 37.2032L58.4521 36.5795L60.8358 33.2045H62.0164L59.1538 37.2032ZM66.0322 40.9346V33.4273H67.0792V40.9346H66.0322ZM63.4035 34.1624V33.2045H69.6967V34.1624H63.4035ZM75.3148 40.9346V33.2045H76.3618V40.9346H75.3148ZM76.0277 40.9346V39.9767H80.1712V40.9346H76.0277ZM85.4197 41.046C84.8702 41.046 84.3579 40.9458 83.8826 40.7453C83.4074 40.5373 82.9915 40.2515 82.6351 39.8876C82.2787 39.5163 82.0002 39.0893 81.7997 38.6067C81.6067 38.124 81.5101 37.6079 81.5101 37.0584C81.5101 36.5015 81.6067 35.9854 81.7997 35.5102C82.0002 35.0275 82.275 34.6043 82.624 34.2404C82.9804 33.8765 83.3925 33.5944 83.8603 33.3939C84.3356 33.1934 84.848 33.0931 85.3974 33.0931C85.9469 33.0931 86.4556 33.1934 86.9234 33.3939C87.3987 33.5944 87.8145 33.8765 88.1709 34.2404C88.5274 34.6043 88.8058 35.0275 89.0063 35.5102C89.2068 35.9929 89.307 36.5126 89.307 37.0696C89.307 37.6191 89.2068 38.1351 89.0063 38.6178C88.8058 39.1005 88.5274 39.5237 88.1709 39.8876C87.8219 40.2515 87.4098 40.5373 86.9346 40.7453C86.4667 40.9458 85.9618 41.046 85.4197 41.046ZM85.3974 40.0435C85.9544 40.0435 86.4408 39.9173 86.8566 39.6648C87.2798 39.4049 87.614 39.0522 87.859 38.6067C88.1041 38.1537 88.2266 37.6376 88.2266 37.0584C88.2266 36.6277 88.1561 36.2342 88.015 35.8778C87.8739 35.5139 87.6771 35.1983 87.4246 34.931C87.1722 34.6637 86.8752 34.4595 86.5336 34.3184C86.192 34.1699 85.8133 34.0956 85.3974 34.0956C84.848 34.0956 84.3616 34.2218 83.9383 34.4743C83.5225 34.7268 83.192 35.0758 82.947 35.5213C82.7094 35.9669 82.5906 36.4792 82.5906 37.0584C82.5906 37.4891 82.6574 37.8901 82.791 38.2614C82.9321 38.6252 83.1252 38.9408 83.3702 39.2082C83.6227 39.4681 83.9197 39.6723 84.2613 39.8208C84.6103 39.9693 84.989 40.0435 85.3974 40.0435ZM91.8571 40.9346V33.2045H92.5923L92.9042 34.4186V40.9346H91.8571ZM97.2036 40.9346L92.4586 34.5968L92.5923 33.2045L97.3484 39.5312L97.2036 40.9346ZM97.2036 40.9346L96.8917 39.7874V33.2045H97.9387V40.9346H97.2036ZM104.376 41.046C103.834 41.046 103.326 40.9458 102.85 40.7453C102.383 40.5373 101.97 40.2515 101.614 39.8876C101.265 39.5237 100.99 39.1005 100.79 38.6178C100.589 38.1351 100.489 37.6154 100.489 37.0584C100.489 36.5015 100.589 35.9854 100.79 35.5102C100.99 35.0275 101.269 34.6043 101.625 34.2404C101.982 33.8765 102.397 33.5944 102.873 33.3939C103.355 33.1934 103.879 33.0931 104.443 33.0931C105.06 33.0931 105.628 33.2119 106.147 33.4496C106.667 33.6872 107.102 34.0288 107.451 34.4743L106.727 35.1983C106.482 34.8419 106.158 34.5708 105.758 34.3852C105.357 34.1921 104.918 34.0956 104.443 34.0956C103.879 34.0956 103.378 34.2218 102.939 34.4743C102.509 34.7268 102.171 35.0758 101.926 35.5213C101.688 35.9669 101.569 36.4792 101.569 37.0584C101.569 37.6451 101.692 38.1611 101.937 38.6067C102.182 39.0522 102.513 39.4012 102.928 39.6537C103.344 39.9062 103.819 40.0324 104.354 40.0324C104.896 40.0324 105.364 39.9284 105.758 39.7205C106.158 39.5126 106.467 39.2082 106.682 38.8072C106.897 38.3988 107.005 37.9012 107.005 37.3146L107.64 37.7713H104.298V36.8134H108.085V36.9693C108.085 37.8678 107.926 38.6215 107.607 39.2304C107.295 39.8319 106.857 40.2849 106.292 40.5893C105.735 40.8938 105.097 41.046 104.376 41.046ZM115.914 40.9346V33.4273H116.961V40.9346H115.914ZM113.285 34.1624V33.2045H119.578V34.1624H113.285ZM121.94 40.9346V33.2045H122.987V40.9346H121.94ZM122.653 40.9346V39.9767H127.086V40.9346H122.653ZM122.653 37.4371V36.5238H126.718V37.4371H122.653ZM122.653 34.1624V33.2045H127.03V34.1624H122.653ZM130.325 37.5708V36.6909H132.419C132.872 36.6909 133.221 36.5758 133.466 36.3456C133.711 36.1154 133.834 35.8035 133.834 35.4099C133.834 35.0387 133.711 34.7305 133.466 34.4854C133.229 34.2404 132.883 34.1179 132.43 34.1179H130.325V33.2045H132.464C132.954 33.2045 133.381 33.3011 133.745 33.4941C134.109 33.6798 134.387 33.9359 134.58 34.2627C134.781 34.5894 134.881 34.9644 134.881 35.3877C134.881 35.8258 134.781 36.2082 134.58 36.5349C134.387 36.8617 134.109 37.1178 133.745 37.3035C133.381 37.4817 132.954 37.5708 132.464 37.5708H130.325ZM129.623 40.9346V33.2045H130.671V40.9346H129.623ZM134.079 40.9346L131.272 37.4706L132.263 37.1253L135.404 40.9346H134.079ZM137.601 40.9346V33.2045H138.336L141.611 38.5844H141.11L144.384 33.2045H145.119V40.9346H144.072V35.0424L144.317 35.1092L141.733 39.353H140.998L138.414 35.1092L138.648 35.0424V40.9346H137.601ZM153.639 41.046C153.03 41.046 152.51 40.9346 152.08 40.7118C151.649 40.4891 151.266 40.1661 150.932 39.7428L151.645 39.0299C151.89 39.3715 152.172 39.6314 152.492 39.8096C152.811 39.9804 153.205 40.0658 153.672 40.0658C154.133 40.0658 154.5 39.9656 154.775 39.7651C155.057 39.5646 155.198 39.2898 155.198 38.9408C155.198 38.6512 155.132 38.4173 154.998 38.2391C154.864 38.0609 154.682 37.9161 154.452 37.8047C154.229 37.6859 153.984 37.5819 153.717 37.4928C153.45 37.3963 153.182 37.2961 152.915 37.1921C152.648 37.0807 152.403 36.947 152.18 36.7911C151.957 36.6277 151.775 36.4161 151.634 36.1562C151.5 35.8963 151.434 35.5696 151.434 35.176C151.434 34.7379 151.538 34.3666 151.745 34.0622C151.961 33.7503 152.25 33.5127 152.614 33.3493C152.986 33.1785 153.401 33.0931 153.862 33.0931C154.367 33.0931 154.82 33.1934 155.221 33.3939C155.622 33.5869 155.948 33.8431 156.201 34.1624L155.488 34.8753C155.258 34.608 155.009 34.4075 154.742 34.2738C154.482 34.1402 154.181 34.0733 153.839 34.0733C153.424 34.0733 153.093 34.1661 152.848 34.3518C152.603 34.53 152.481 34.7825 152.481 35.1092C152.481 35.3691 152.547 35.5807 152.681 35.7441C152.822 35.9 153.004 36.0337 153.227 36.1451C153.45 36.2565 153.695 36.3604 153.962 36.457C154.237 36.5461 154.508 36.6463 154.775 36.7577C155.042 36.8691 155.287 37.0102 155.51 37.181C155.733 37.3517 155.911 37.5745 156.045 37.8493C156.186 38.1166 156.257 38.4545 156.257 38.8629C156.257 39.546 156.019 40.0807 155.544 40.4668C155.076 40.8529 154.441 41.046 153.639 41.046ZM160.472 40.9346V33.4273H161.519V40.9346H160.472ZM157.843 34.1624V33.2045H164.137V34.1624H157.843ZM164.799 40.9346L167.962 33.2045H168.719L171.872 40.9346H170.735L168.14 34.3963H168.53L165.912 40.9346H164.799ZM166.302 39.1859V38.2725H170.368V39.1859H166.302ZM175.512 37.7936L172.471 33.2045H173.685L176.136 36.9582H175.59L178.051 33.2045H179.243L176.18 37.7936H175.512ZM175.334 40.9346V37.103H176.381V40.9346H175.334Z" fill="#100505"/>
</svg>
